<svg xmlns="http://www.w3.org/2000/svg" width="22.5" height="22.507" viewBox="0 0 22.5 22.507">
  <g id="Icon_ionic-ios-quote" data-name="Icon ionic-ios-quote" transform="translate(-6.75 -6.75)">
    <path id="Path_6" data-name="Path 6" d="M14.7,6.75h-4.57A3.385,3.385,0,0,0,6.75,10.125v9A3.385,3.385,0,0,0,10.125,22.5h2.721a.566.566,0,0,1,.563.6,8.576,8.576,0,0,1-2.2,5.21.563.563,0,0,0,.415.942h2.805a.546.546,0,0,0,.443-.218,10.875,10.875,0,0,0,2-6.6V8.937A2.131,2.131,0,0,0,14.7,6.75Z" fill="#fa6980"/>
    <path id="Path_7" data-name="Path 7" d="M27.07,6.75H22.5a3.385,3.385,0,0,0-3.375,3.375v9A3.385,3.385,0,0,0,22.5,22.5h2.721a.566.566,0,0,1,.563.6,8.576,8.576,0,0,1-2.2,5.21.563.563,0,0,0,.415.942H26.8a.546.546,0,0,0,.443-.218,10.875,10.875,0,0,0,2-6.6V8.937A2.131,2.131,0,0,0,27.07,6.75Z" fill="#fa6980"/>
  </g>
</svg>
